<svg width="24" height="21" viewBox="0 0 24 21" fill="none" xmlns="http://www.w3.org/2000/svg">
<path d="M12.5991 19.7082C12.468 19.5747 12.364 19.416 12.293 19.2413C12.222 19.0665 12.1855 18.8792 12.1855 18.69C12.1855 18.5008 12.222 18.3135 12.293 18.1387C12.364 17.964 12.468 17.8053 12.5991 17.6718L18.6331 11.5037L1.40651 11.5037C1.03355 11.5037 0.675863 11.3522 0.41214 11.0827C0.148417 10.8131 0.000258227 10.4474 0.000258244 10.0662C0.000258261 9.68494 0.148417 9.31931 0.41214 9.04972C0.675863 8.78014 1.03355 8.62869 1.40651 8.62869L18.6331 8.62869L12.5991 2.45822C12.3349 2.18817 12.1865 1.8219 12.1865 1.43999C12.1865 1.05808 12.3349 0.691815 12.5991 0.421764C12.8633 0.151713 13.2216 -4.46766e-07 13.5952 -4.30435e-07C13.9688 -4.14104e-07 14.3271 0.151713 14.5913 0.421764L23.0288 9.04676C23.1599 9.18031 23.2639 9.339 23.3349 9.51373C23.4058 9.68846 23.4424 9.8758 23.4424 10.065C23.4424 10.2542 23.4058 10.4415 23.3349 10.6163C23.2639 10.791 23.1599 10.9497 23.0288 11.0832L14.5913 19.7082C14.4606 19.8422 14.3054 19.9486 14.1345 20.0211C13.9635 20.0937 13.7803 20.131 13.5952 20.131C13.4101 20.131 13.2268 20.0937 13.0559 20.0211C12.885 19.9486 12.7297 19.8422 12.5991 19.7082Z" fill="#002C1F"/>
</svg>
