<svg width="26" height="23" viewBox="0 0 26 23" fill="none" xmlns="http://www.w3.org/2000/svg">
<path opacity="0.5" d="M24 0.336548H2C1.46957 0.336548 0.960859 0.547261 0.585786 0.922334C0.210714 1.29741 0 1.80611 0 2.33655V20.3365C0 20.867 0.210714 21.3757 0.585786 21.7508C0.960859 22.1258 1.46957 22.3365 2 22.3365H24C24.5304 22.3365 25.0391 22.1258 25.4142 21.7508C25.7893 21.3757 26 20.867 26 20.3365V2.33655C26 1.80611 25.7893 1.29741 25.4142 0.922334C25.0391 0.547261 24.5304 0.336548 24 0.336548ZM2 2.33655H7V20.3365H2V2.33655ZM24 20.3365H9V2.33655H24V20.3365Z" fill="white"/>
</svg>
