<svg width="16" height="23" viewBox="0 0 16 23" fill="none" xmlns="http://www.w3.org/2000/svg">
<path opacity="0.3" d="M15.1333 15.4358C15.132 16.6881 14.634 17.8886 13.7485 18.7741C12.8631 19.6595 11.6625 20.1575 10.4103 20.1588H8.83599V21.7332C8.83599 21.9419 8.75306 22.1421 8.60544 22.2898C8.45782 22.4374 8.2576 22.5203 8.04883 22.5203C7.84006 22.5203 7.63984 22.4374 7.49222 22.2898C7.3446 22.1421 7.26166 21.9419 7.26166 21.7332V20.1588H5.68734C4.43512 20.1575 3.23457 19.6595 2.34912 18.7741C1.46367 17.8886 0.965658 16.6881 0.964355 15.4358C0.964355 15.2271 1.04729 15.0269 1.19491 14.8792C1.34253 14.7316 1.54275 14.6487 1.75152 14.6487C1.96029 14.6487 2.16051 14.7316 2.30813 14.8792C2.45575 15.0269 2.53868 15.2271 2.53868 15.4358C2.53868 16.2709 2.87041 17.0718 3.4609 17.6623C4.05139 18.2528 4.85226 18.5845 5.68734 18.5845H10.4103C11.2454 18.5845 12.0463 18.2528 12.6368 17.6623C13.2272 17.0718 13.559 16.2709 13.559 15.4358C13.559 14.6008 13.2272 13.7999 12.6368 13.2094C12.0463 12.6189 11.2454 12.2872 10.4103 12.2872H6.4745C5.22189 12.2872 4.02058 11.7896 3.13485 10.9039C2.24912 10.0181 1.75152 8.81682 1.75152 7.56421C1.75152 6.3116 2.24912 5.11029 3.13485 4.22456C4.02058 3.33883 5.22189 2.84123 6.4745 2.84123H7.26166V1.2669C7.26166 1.05813 7.3446 0.857913 7.49222 0.710291C7.63984 0.562669 7.84006 0.479736 8.04883 0.479736C8.2576 0.479736 8.45782 0.562669 8.60544 0.710291C8.75306 0.857913 8.83599 1.05813 8.83599 1.2669V2.84123H9.62316C10.8754 2.84253 12.0759 3.34055 12.9614 4.226C13.8468 5.11144 14.3448 6.312 14.3461 7.56421C14.3461 7.77298 14.2632 7.9732 14.1156 8.12082C13.968 8.26844 13.7677 8.35137 13.559 8.35137C13.3502 8.35137 13.15 8.26844 13.0024 8.12082C12.8547 7.9732 12.7718 7.77298 12.7718 7.56421C12.7718 6.72913 12.4401 5.92826 11.8496 5.33777C11.2591 4.74729 10.4582 4.41555 9.62316 4.41555H6.4745C5.63943 4.41555 4.83855 4.74729 4.24807 5.33777C3.65758 5.92826 3.32585 6.72913 3.32585 7.56421C3.32585 8.39928 3.65758 9.20016 4.24807 9.79064C4.83855 10.3811 5.63943 10.7129 6.4745 10.7129H10.4103C11.6625 10.7142 12.8631 11.2122 13.7485 12.0976C14.634 12.9831 15.132 14.1836 15.1333 15.4358Z" fill="white"/>
</svg>
